<?xml version="1.0" encoding="UTF-8"?>
<!DOCTYPE svg PUBLIC "-//W3C//DTD SVG 1.1//EN" "http://www.w3.org/Graphics/SVG/1.1/DTD/svg11.dtd">
<!-- Creator: CorelDRAW -->
<svg xmlns="http://www.w3.org/2000/svg" xml:space="preserve" width="8.5in" height="11in" style="shape-rendering:geometricPrecision; text-rendering:geometricPrecision; image-rendering:optimizeQuality; fill-rule:evenodd; clip-rule:evenodd"
viewBox="0 0 8.5 11"
 xmlns:xlink="http://www.w3.org/1999/xlink">
 <defs>
  <style type="text/css">
   <![CDATA[
    .str0 {stroke:#1F1A17;stroke-width:0.003}
    .fil0 {fill:#1F1A17}
    .fil1 {fill:#1F1A17;fill-rule:nonzero}
   ]]>
  </style>
 </defs>
 <g id="Layer_x0020_1">
  <metadata id="CorelCorpID_0Corel-Layer"/>
  <g id="_89006536">
   <path id="_89122464" class="fil0 str0" d="M2.33536 1.86343c-0.0553504,-0.0515079 -0.123787,-0.138803 -0.101547,-0.228953 0.0173268,-0.0702126 0.0867087,-0.117189 0.184311,-0.13713 0.0977717,-0.0199724 0.224311,-0.0134291 0.355988,0.0245157 0.132012,0.0370079 0.245008,0.0984567 0.320878,0.167217 0.075752,0.0686575 0.114476,0.145465 0.0973543,0.214882 -0.0260079,0.105374 -0.151094,0.140287 -0.235811,0.15187 0.00213386,-0.00149213 0.00405512,-0.00333071 0.00570079,-0.00544488 0.0674882,-0.019685 0.162437,-0.0621969 0.183453,-0.147358 0.0154252,-0.0625157 -0.019378,-0.126854 -0.0864567,-0.182976 -0.0675197,-0.0564921 -0.167217,-0.106217 -0.283996,-0.133594 -0.116181,-0.0294173 -0.227906,-0.0308858 -0.314457,-0.00974803 -0.0862402,0.0210551 -0.147969,0.0659488 -0.164181,0.131654 -0.0121614,0.0492795 0.0028189,0.103591 0.0387638,0.155067z"/>
   <path id="_89006560" class="fil1 str0" d="M2.42355 1.76113l0.0814961 0c0.0270866,0.000177165 0.0473189,0.00727165 0.0606929,0.0212835 0.013378,0.0140118 0.0209764,0.0359055 0.0227913,0.065685 0,0.00104724 3.93701e-005,0.00205512 0.000122047,0.00301969 8.26772e-005,0.000964567 0.000125984,0.00197244 0.000125984,0.00301969 0.000161417,0.00105118 0.000244094,0.00205906 0.000244094,0.00302362 0,0.000964567 0,0.0019685 0,0.00301969 0,0.000700787 0,0.00140157 0,0.00210236 0,0.000700787 0,0.00140157 0,0.00210236 -0.000492126,0.0129606 -0.00272441,0.0255748 -0.00668504,0.0378346 -0.00396457,0.0122598 -0.0109016,0.0226811 -0.0208071,0.0312638 -0.00809449,0.00700787 -0.0168071,0.0114764 -0.0261378,0.0134016 -0.00932677,0.0019252 -0.0191142,0.00288976 -0.0293543,0.00288976l-0.0824882 0 0 -0.188646zm0.0807559 0.0328425l-0.0433504 0 0 0.122961 0.0433504 0c0.000330709,0.000177165 0.000700787,0.00026378 0.00111417,0.00026378 0.000413386,0 0.000787402,0 0.00111811,0 0.00544882,0 0.0107756,-0.000570866 0.0159724,-0.00170866 0.00520079,-0.0011378 0.0097874,-0.00407087 0.013752,-0.00880315 0.00396457,-0.00490157 0.00672835,-0.0104213 0.00829528,-0.0165512 0.00157087,-0.00612992 0.00260236,-0.0123465 0.00309843,-0.0186535 0.000165354,-0.00262598 0.000244094,-0.00525591 0.000244094,-0.00788189 0,-0.00262598 0,-0.00525591 0,-0.00788189 0,-0.00262598 0,-0.00538583 0,-0.00827559 0,-0.00288976 -0.000161417,-0.00573622 -0.000492126,-0.00853937 -0.000330709,-0.00612992 -0.00127953,-0.0121732 -0.00285039,-0.0181299 -0.00156693,-0.00595669 -0.00433071,-0.0112087 -0.00829528,-0.0157638 -0.00396457,-0.00472835 -0.00855118,-0.00770866 -0.013752,-0.00893307 -0.00519685,-0.00122441 -0.0105236,-0.00183858 -0.0159724,-0.00183858 -0.000330709,0 -0.000704724,0 -0.00111811,0 -0.000413386,0 -0.000783465,0 -0.00111417,0l0 -0.00026378zm0.16498 0.155803c-0.00925197,0 -0.0182087,-0.0011811 -0.026878,-0.00354724 -0.00867323,-0.00236614 -0.0163071,-0.00731102 -0.0229134,-0.0148425 -0.0052874,-0.00613386 -0.00912598,-0.0131378 -0.0115197,-0.0210197 -0.0023937,-0.00788189 -0.00383858,-0.0159409 -0.00433465,-0.0241732 0,-0.000874016 0,-0.00175197 0,-0.00262598 0,-0.000877953 0,-0.00175197 0,-0.00262992 0,-0.00122441 0,-0.00240551 0,-0.00354331 0,-0.00114173 8.26772e-005,-0.00232283 0.000248031,-0.00354724 0.000492126,-0.00788189 0.00194094,-0.0156339 0.00433465,-0.023252 0.0023937,-0.00762205 0.00615354,-0.0144094 0.0112717,-0.0203622 0.0066063,-0.00770866 0.0142402,-0.0127441 0.0229134,-0.0151102 0.00866929,-0.0023622 0.017626,-0.00354724 0.026878,-0.00354724l0.0502835 -0.000259843 0 0.0289016 -0.0455787 0c-0.00957874,0.000173228 -0.0172559,0.00170472 -0.0230394,0.00459449 -0.00577953,0.00288976 -0.00883465,0.0101181 -0.00916535,0.0216772l0.0777835 -0.00026378 0 0.0289016 -0.0777835 0c0.000330709,0.0120866 0.00322441,0.0194449 0.00867323,0.0220709 0.00544882,0.00262598 0.0132087,0.00394094 0.0232835,0.00394094l0.0458268 -0.00026378 0 0.0289016 -0.0502835 0zm0.107752 0l-0.0359173 0 0 -0.188646 0.0359173 0 0 0.188646zm0.0275 -0.0289016l0.0725827 0c0.000330709,0.000177165 0.000661417,0.00026378 0.000988189,0.00026378 0.000326772,0 0.00065748,0 0.000988189,0 0.00413386,-0.000177165 0.00792913,-0.0011378 0.0113976,-0.00288976 0.0034685,-0.00175197 0.00520472,-0.00534252 0.00520472,-0.0107717 0,-0.00508268 -0.00165354,-0.00849606 -0.00495669,-0.010248 -0.00330315,-0.00175197 -0.00685433,-0.00280315 -0.0106535,-0.00315354 -0.000492126,0 -0.000992126,0 -0.00148425,0 -0.000496063,0 -0.000992126,0 -0.00148425,0l-0.0297283 -0.00026378c-0.013874,0.000177165 -0.024811,-0.00183858 -0.0328228,-0.00603937 -0.00800787,-0.00420472 -0.0120984,-0.0148898 -0.0122598,-0.0320551 -0.000165354,-0.0161142 0.00396063,-0.0275 0.0123819,-0.0341575 0.0084252,-0.00665354 0.0196575,-0.00998425 0.033689,-0.00998425l0.0740709 -0.000259843 0 0.0289016 -0.0609409 0c-0.000822835,0.000173228 -0.00173228,0.000259843 -0.00272441,0.000259843 -0.000992126,0 -0.00206299,0 -0.00321654,0 -0.000661417,0 -0.00128346,0 -0.0018622,0 -0.00057874,0 -0.00111417,0 -0.00161024,0 -0.0031378,0.000177165 -0.00606693,0.000834646 -0.00879134,0.00197244 -0.00272441,0.0011378 -0.0045,0.00345669 -0.00532677,0.00696063 -0.000165354,0.000700787 -0.000287402,0.00140157 -0.000374016,0.00210236 -7.87402e-005,0.000700787 -0.000122047,0.00140157 -0.000122047,0.00210236 0,0.00437795 0.00173622,0.00744488 0.00520079,0.00919685 0.00347244,0.00175197 0.00726772,0.00262598 0.0113976,0.00262598l0.0312126 -0.00026378c0.0122205,0.000177165 0.0224567,0.00319685 0.0307165,0.00906693 0.00825591,0.00586614 0.0126299,0.0159803 0.0131299,0.0303465 0,0.000173228 0,0.000350394 0,0.000523622 0,0.000177165 0,0.00026378 0,0.00026378 0,0.000173228 0,0.000350394 0,0.000523622 0,0.000177165 0,0.000350394 0,0.000527559 0,0.0110354 -0.0031378,0.0210197 -0.00941339,0.0299528 -0.00627953,0.00893307 -0.0150315,0.0133976 -0.0262598,0.0133976l-0.0889291 0 0 -0.0289016z"/>
  </g>
 </g>
</svg>
